<svg width="24" height="24" viewBox="0 0 24 24" fill="none" xmlns="http://www.w3.org/2000/svg">
<path d="M21.2395 1.00051H2.88371C2.64712 0.989426 2.41065 1.02511 2.18786 1.10553C1.96508 1.18595 1.76034 1.30952 1.58537 1.46915C1.4104 1.6288 1.26863 1.82139 1.16819 2.03589C1.06774 2.2504 1.01059 2.4826 1 2.71922V21.1163C1.01386 21.6115 1.21678 22.0827 1.56708 22.4329C1.91738 22.7832 2.3885 22.9862 2.88371 23H21.2395C21.7209 22.9786 22.1748 22.7693 22.5038 22.4172C22.8328 22.0651 23.0108 21.5981 22.9995 21.1163V2.71922C23.0035 2.48891 22.9603 2.26024 22.8727 2.0472C22.7851 1.83418 22.6549 1.64128 22.4901 1.48034C22.3253 1.31942 22.1294 1.19386 21.9144 1.11134C21.6993 1.02883 21.4697 0.991117 21.2395 1.00051ZM7.87484 19.3426H4.67117V9.5391H7.87484V19.3426ZM6.34863 8.0541C6.12507 8.06189 5.90231 8.02337 5.69436 7.94095C5.4864 7.85853 5.29772 7.734 5.14021 7.57518C4.98268 7.41636 4.85969 7.22668 4.77898 7.01806C4.69825 6.80943 4.66155 6.58637 4.67117 6.36289C4.66128 6.13698 4.69872 5.91151 4.78109 5.70093C4.86347 5.49034 4.98895 5.29931 5.14948 5.14007C5.31002 4.98082 5.50206 4.8569 5.7133 4.77624C5.92455 4.69557 6.15032 4.65996 6.37613 4.67167C6.59968 4.66389 6.82244 4.7024 7.03039 4.78482C7.23836 4.86724 7.42703 4.99177 7.58454 5.15059C7.74207 5.30941 7.86507 5.49909 7.94578 5.70771C8.0265 5.91634 8.0632 6.1394 8.05359 6.36289C8.06347 6.58879 8.02603 6.81426 7.94366 7.02484C7.86128 7.23543 7.73581 7.42647 7.57528 7.5857C7.41474 7.74495 7.22269 7.86887 7.01146 7.94953C6.80021 8.0302 6.57444 8.06581 6.34863 8.0541ZM19.3421 19.3426H16.1247V13.9803C16.1247 12.7015 15.6709 11.8216 14.5297 11.8216C14.1752 11.8246 13.8302 11.9372 13.5423 12.144C13.2543 12.3508 13.0373 12.6416 12.921 12.9765C12.8316 13.2276 12.7942 13.4942 12.811 13.7603V19.3426H9.64855V9.5391H12.811V10.9141C13.0922 10.3975 13.5106 9.96878 14.0201 9.67509C14.5297 9.38153 15.1105 9.23452 15.6984 9.25032C17.7746 9.25032 19.3421 10.6253 19.3421 13.554V19.3426Z" fill="black"/>
</svg>
