<svg width="90" height="123" viewBox="0 0 90 123" fill="none" xmlns="http://www.w3.org/2000/svg">
<g clip-path="url(#clip0_94_18)">
<path fill-rule="evenodd" clip-rule="evenodd" d="M36.66 29.82H37.07C40.25 29.82 42.85 32.42 42.85 35.6V72.78H46.59V57.21C46.59 54.26 49.01 51.84 51.96 51.84H52.37C55.55 51.84 58.15 54.44 58.15 57.62V73.19L58.33 73.13H62.38V61.28C62.38 58.33 64.8 55.91 67.75 55.91H68.16C71.34 55.91 73.94 58.51 73.94 61.69V72.52L73.99 72.54L78 72.51V64.86C78 61.91 80.42 59.49 83.37 59.49H83.78C86.96 59.49 89.56 62.09 89.56 65.27V81.47C89.56 81.67 89.55 81.87 89.53 82.06L89.72 82.22C90.07 92.66 89.36 107.62 80.77 115.09C72.25 122.01 63.72 123.83 54.88 122.44C42.81 120.54 36.53 114 30.81 103.62L8.18 67.74C7 64.97 7.16 63.08 8.35 61.88C13.45 58.57 21.76 65.6 30.97 75.55L31.3 75.47V35.19C31.29 32.24 33.71 29.82 36.66 29.82ZM40.17 14.29C40.17 15.86 38.9 17.13 37.33 17.13C35.76 17.13 34.49 15.86 34.49 14.29L34.47 2.84C34.47 1.27 35.74 0 37.31 0C38.88 0 40.15 1.27 40.15 2.84L40.17 14.29ZM14.29 37.76C15.86 37.76 17.13 39.03 17.13 40.6C17.13 42.17 15.86 43.44 14.29 43.44H2.84C1.27 43.44 0 42.17 0 40.6C0 39.03 1.27 37.76 2.84 37.76H14.29ZM22.41 20.77C23.52 21.88 23.51 23.69 22.4 24.79C21.29 25.9 19.48 25.89 18.38 24.78L10.29 16.68C9.18 15.57 9.19 13.76 10.3 12.66C11.41 11.55 13.22 11.56 14.32 12.67L22.41 20.77ZM59.8 43.45C58.23 43.45 56.96 42.18 56.96 40.61C56.96 39.04 58.23 37.77 59.8 37.77L71.25 37.76C72.82 37.76 74.09 39.03 74.09 40.6C74.09 42.17 72.82 43.44 71.25 43.44L59.8 43.45ZM55.72 24.16C54.61 25.27 52.81 25.28 51.7 24.17C50.59 23.06 50.58 21.26 51.69 20.15L59.78 12.05C60.89 10.94 62.69 10.93 63.8 12.04C64.91 13.15 64.92 14.95 63.81 16.06L55.72 24.16Z" fill="#8C30F5"/>
</g>
<defs>
<clipPath id="clip0_94_18">
<rect width="89.78" height="122.88" fill="white"/>
</clipPath>
</defs>
</svg>
