<svg width="146" height="24" viewBox="0 0 146 24" fill="none" xmlns="http://www.w3.org/2000/svg">
<path d="M23.0774 7.21047C22.6495 7.64684 22.1325 7.98188 21.5631 8.19175C21.944 9.38685 22.0586 10.6533 21.8986 11.8992C19.2354 13.5918 15.7774 13.19 13.5572 10.9299C11.3369 8.66972 10.9414 5.14879 12.6031 2.43654C13.827 2.27348 15.0712 2.39018 16.2453 2.77814C16.7226 1.44272 17.8277 0.441401 19.1857 0.113789C20.5438 -0.213822 21.9726 0.176235 22.9876 1.15167L23.0756 1.23815L23.1605 1.32769C24.6988 2.98921 24.662 5.59469 23.0774 7.21047Z" fill="#0077CC"/>
<path d="M46.5784 6.9314L43.9637 19.3201H40.28L37.9514 11.782L35.5186 19.3201H31.8349L29.2202 6.9314H32.7655L33.8852 14.843L35.9644 8.4487C36.2573 7.54289 37.0883 6.93097 38.0249 6.9314C38.974 6.93104 39.813 7.55925 40.0957 8.48182L42.07 14.9111L43.2946 6.9314H46.5784Z" fill="#0077CC"/>
<path d="M134.608 19.3201L131.994 6.9314H128.31L125.981 14.4689L123.548 6.9314H119.865L117.25 19.3201H120.795L121.915 11.4085L123.994 17.8022C124.288 18.707 125.118 19.3181 126.054 19.3176C127.003 19.3182 127.843 18.69 128.125 17.7672L130.101 11.3392L131.324 19.3201H134.608Z" fill="#0077CC"/>
<path fill-rule="evenodd" clip-rule="evenodd" d="M47.7213 17.0725C48.182 17.8306 48.8408 18.4432 49.624 18.8418C50.4351 19.2662 51.3444 19.478 52.3519 19.4772C53.3714 19.4772 54.2866 19.265 55.0973 18.8406C55.879 18.4431 56.5354 17.8301 56.9916 17.0712C57.4433 16.3169 57.6692 15.4617 57.6692 14.5058C57.6692 13.5499 57.4433 12.6976 56.9916 11.9489C56.5345 11.1953 55.8779 10.5882 55.0973 10.1974C54.2862 9.77827 53.371 9.56873 52.3519 9.56873C51.3328 9.56873 50.4205 9.77868 49.615 10.1986C48.8349 10.5941 48.179 11.2037 47.7213 11.9588C47.2635 12.7135 47.0347 13.563 47.0347 14.507C47.0347 15.4621 47.2635 16.3173 47.7213 17.0725ZM54.3363 14.5069C54.3363 15.2245 54.1509 15.7877 53.7803 16.1966H53.7773C53.4067 16.6026 52.9316 16.8056 52.3522 16.8056C51.7748 16.8064 51.3008 16.6034 50.9301 16.1966C50.5595 15.7898 50.3742 15.2266 50.3742 14.5069C50.3742 13.7992 50.5595 13.2448 50.9301 12.8437C51.3008 12.4426 51.7758 12.242 52.3552 12.242C52.9347 12.242 53.4097 12.4426 53.7803 12.8437C54.1509 13.2448 54.3363 13.7992 54.3363 14.5069Z" fill="#0077CC"/>
<path d="M71.137 15.9574L70.1636 16.9663V19.3201H66.8623V8.21936C66.8623 7.09753 67.7554 6.18811 68.8572 6.18811H70.1636V13.0736L73.5366 9.72931H77.4468L73.5366 13.8341L77.7769 19.3195H73.7781L71.137 15.9574Z" fill="#0077CC"/>
<path d="M79.946 19.2042C79.1811 19.0214 78.5669 18.7826 78.1035 18.4878L79.0943 16.1873C79.5696 16.479 80.0851 16.6967 80.6236 16.8331C81.1958 16.9901 81.7856 17.0705 82.3782 17.0723C82.911 17.0723 83.2905 17.0163 83.5165 16.9043C83.7426 16.7922 83.8556 16.6299 83.8556 16.4173C83.8556 16.2051 83.7189 16.0549 83.4473 15.9665C83.1756 15.8782 82.7432 15.7924 82.1523 15.7096C81.5039 15.6372 80.862 15.5142 80.2321 15.3416C79.7097 15.1911 79.2379 14.8972 78.8685 14.4922C78.4858 14.0796 78.2947 13.5015 78.2951 12.7577C78.2881 12.1661 78.4778 11.5894 78.8335 11.1215C79.1925 10.6435 79.7167 10.2659 80.4062 9.98869C81.0956 9.71148 81.921 9.57288 82.8823 9.57288C83.5655 9.57294 84.2468 9.64425 84.9157 9.78569C85.5875 9.92675 86.1497 10.1273 86.6022 10.3873L85.6114 12.6694C84.7831 12.1992 83.8493 11.9553 82.901 11.9617C82.379 11.9617 81.9975 12.023 81.7566 12.1457C81.5156 12.2683 81.394 12.4304 81.3916 12.632C81.3916 12.8565 81.5249 13.0129 81.7915 13.1012C82.0581 13.1895 82.4982 13.2809 83.1118 13.3753C83.7625 13.4669 84.4064 13.6029 85.0392 13.7826C85.5485 13.9356 86.0078 14.2259 86.3685 14.6228C86.7452 15.0317 86.9335 15.6008 86.9335 16.3302C86.9387 16.9164 86.7489 17.487 86.395 17.9493C86.0336 18.4273 85.5036 18.8018 84.8049 19.0729C84.1062 19.344 83.263 19.4795 82.2752 19.4795C81.4909 19.4797 80.7093 19.3873 79.946 19.2042Z" fill="#0077CC"/>
<path d="M91.5523 9.64096V12.3659H96.9219V15.073H91.5523V19.3201H88.1118V8.9651C88.1112 8.42596 88.3211 7.90867 88.6953 7.5272C89.0694 7.14574 89.5772 6.9314 90.1067 6.9314H97.6537V9.63851L91.5523 9.64096Z" fill="#0077CC"/>
<path fill-rule="evenodd" clip-rule="evenodd" d="M98.9996 17.0725C99.4603 17.8306 100.119 18.4432 100.902 18.8418C101.713 19.2662 102.623 19.478 103.63 19.4772C104.65 19.4772 105.565 19.265 106.376 18.8406C107.157 18.4431 107.814 17.8301 108.27 17.0712C108.722 16.3169 108.948 15.4617 108.948 14.5058C108.948 13.5499 108.722 12.6976 108.27 11.9489C107.813 11.1953 107.156 10.5882 106.376 10.1974C105.564 9.77827 104.649 9.56873 103.63 9.56873C102.611 9.56873 101.699 9.77868 100.893 10.1986C100.113 10.5941 99.4574 11.2037 98.9996 11.9588C98.5419 12.7135 98.313 13.563 98.313 14.507C98.3122 15.4621 98.5411 16.3173 98.9996 17.0725ZM105.614 14.5069C105.614 15.2245 105.429 15.7877 105.059 16.1966H105.055C104.686 16.6026 104.212 16.806 103.633 16.8068C103.054 16.8068 102.579 16.6034 102.208 16.1966C101.838 15.7898 101.652 15.2266 101.652 14.5069C101.652 13.7992 101.838 13.2448 102.208 12.8437C102.579 12.4426 103.054 12.242 103.633 12.242C104.213 12.242 104.688 12.4426 105.059 12.8437C105.429 13.2448 105.614 13.7992 105.614 14.5069Z" fill="#0077CC"/>
<path fill-rule="evenodd" clip-rule="evenodd" d="M138.38 15.3735H145.226C145.261 14.8432 145.278 14.566 145.278 14.5419C145.278 13.516 145.055 12.6284 144.609 11.8789C144.177 11.1422 143.547 10.5464 142.793 10.1617C142.028 9.76629 141.177 9.5686 140.239 9.5686C139.254 9.5686 138.369 9.78121 137.583 10.2064C136.819 10.6087 136.178 11.218 135.732 11.9672C135.286 12.7159 135.063 13.5622 135.063 14.5063C135.063 15.4614 135.292 16.3165 135.75 17.0717C136.208 17.8269 136.854 18.4167 137.687 18.8411C138.521 19.2655 139.488 19.4777 140.589 19.4777C142.349 19.4777 143.688 18.9589 144.603 17.9212L142.865 16.0812C142.57 16.3502 142.233 16.5657 141.866 16.7185C141.49 16.8562 141.093 16.9221 140.693 16.9129C140.091 16.9133 139.589 16.7806 139.188 16.5149C138.788 16.2501 138.5 15.8431 138.38 15.3735ZM138.327 13.6042C138.42 13.0972 138.637 12.6961 138.979 12.4009C139.321 12.1073 139.746 11.9605 140.256 11.9605C140.767 11.9593 141.192 12.1061 141.533 12.4009C141.874 12.6957 142.092 13.0968 142.185 13.6042H138.327Z" fill="#0077CC"/>
<path d="M59.2002 14.9952V19.3202H62.5009V14.9136C62.5009 14.1123 62.7017 13.5163 63.1032 13.1259C63.5038 12.7376 64.0555 12.5426 64.7632 12.5426C65.0131 12.546 65.2627 12.5637 65.5107 12.5954V9.56872C65.5107 9.56872 59.2002 8.63405 59.2002 14.9952Z" fill="#0077CC"/>
<path d="M110.477 14.9952V19.3202H113.778V14.9136C113.778 14.1123 113.979 13.5163 114.38 13.1259C114.781 12.7376 115.332 12.5426 116.04 12.5426C116.29 12.546 116.54 12.5636 116.788 12.5954V9.56872C116.788 9.56872 110.477 8.63405 110.477 14.9952Z" fill="#0077CC"/>
<path fill-rule="evenodd" clip-rule="evenodd" d="M12.3801 0.684979C17.1671 0.0451129 21.7215 2.97231 23.2134 7.64778C23.6718 9.09259 23.8102 10.6228 23.6188 12.1286C22.9685 17.2078 18.7183 21.0075 13.6878 21.0067H13.6847C11.6166 21.0116 9.59836 20.3599 7.91093 19.1423L3.6405 23.4906C2.97254 24.1702 1.88996 24.1698 1.2225 23.4897C0.555038 22.8095 0.555442 21.7072 1.2234 21.0276L5.49383 16.6793C4.29724 14.9614 3.65655 12.9063 3.66098 10.8002C3.65872 5.67673 7.39067 1.34725 12.3801 0.684979ZM13.6875 17.4719C16.9742 17.4731 19.7518 14.9916 20.178 11.6732C20.3043 10.6874 20.2147 9.6854 19.9154 8.73914C19.2638 6.7119 17.7027 5.12205 15.7118 4.4583C14.7825 4.15288 13.7982 4.06072 12.8298 4.18845C11.3977 4.37319 10.0672 5.03976 9.04961 6.08232C7.1765 7.99158 6.61712 10.8616 7.63223 13.3545C8.64734 15.8474 11.0371 17.4724 13.6875 17.4719Z" fill="#004170"/>
</svg>
